# xmcd
#
# Track frame offsets:
#	150
#	26049
#	42620
#	58491
#	81603
#	108822
#	123732
#	140989
#	160845
#	186232
#	203099
#	219479
#	233765
#	253680
#
# Disc length: 3596 seconds
#
# Revision: 0
# Processed by: cddbd v1.5.1PL2 Copyright (c) Steve Scherf et al.
# Submitted via: dBpowerAMP V4.0
#
DISCID=dc0e0a0e
DTITLE=Thomas ACEITUNO - Andalucia
DYEAR=2006
DGENRE=Undefined
TTITLE0=La mare mia
TTITLE1=Mon jean
TTITLE2=Ay, que forma de mirar
TTITLE3=Camino de Atocha
TTITLE4=Andalucia
TTITLE5=Le vieux carrier
TTITLE6=Le Seigneloy
TTITLE7=Hallali
TTITLE8=Los recuerdos
TTITLE9=Entre sierra y mar
TTITLE10=Rumba pour un con
TTITLE11=Le petit homme
TTITLE12=L'ombre de tes pas
TTITLE13=Camino de Atocha (remix)
EXTD=Andalucia
EXTT0=
EXTT1=
EXTT2=
EXTT3=
EXTT4=
EXTT5=
EXTT6=
EXTT7=
EXTT8=
EXTT9=
EXTT10=
EXTT11=
EXTT12=
EXTT13=
PLAYORDER=
